<svg xmlns="http://www.w3.org/2000/svg" xmlns:svg="http://www.w3.org/2000/svg" xmlns:xlink="http://www.w3.org/1999/xlink" id="svg2" width="16" height="16" version="1.1" viewBox="0 0 16 16"><metadata id="metadata20"/><defs id="defs4"><linearGradient id="linearGradient3793"><stop id="stop7" offset="0" stop-color="#e5e5e5"/><stop id="stop9" offset="1" stop-color="#f9f9f9"/></linearGradient><linearGradient id="linearGradient3819" x1="1" x2="15" gradientTransform="matrix(0 1 -1 0 16 0)" gradientUnits="userSpaceOnUse" xlink:href="#linearGradient3793"/></defs><path id="path12" fill="#fff" d="M 7.9999998,15 C 4.1340073,15 1.0000003,11.865993 1.0000003,7.9999999 c 0,-3.8659932 3.1340069,-7 6.9999995,-7 3.8659932,0 7.0000002,3.1340068 7.0000002,7 C 15,11.865993 11.865993,15 7.9999997,15 z"/><path id="path14" fill="#393939" fill-opacity="1" d="M 8,0 C 3.581722,0 0,3.581722 0,8 c 0,4.418278 3.581722,8 8,8 4.418278,0 8,-3.581722 8,-8 C 16,3.581722 12.418278,0 8,0 z m 0,1 c 3.865993,0 7,3.1340068 7,7 0,3.865993 -3.134007,7 -7,7 C 4.1340068,15 1,11.865993 1,8 1,4.1340068 4.1340068,1 8,1 z" opacity=".13"/><rect id="rect4157" width="10" height="2.1" x="3" y="7.7" fill="#000" fill-opacity="1" stroke="none" opacity=".2" rx="1.211" ry="1.05"/><rect id="rect4153" width="10" height="2.1" x="2.916" y="6.95" fill="#393939" fill-opacity="1" stroke="none" opacity=".649" rx="1.211" ry="1.05"/><path id="path4155" fill="#393939" fill-opacity="1" d="M 8,0 C 3.5817221,0 0,3.5817221 0,8 0,8.1687226 0.015097,8.3338701 0.025391,8.5 0.2846478,4.315747 3.750445,1 8.0000003,1 12.249555,1 15.715353,4.315747 15.974609,8.5 15.984899,8.3338701 15.999999,8.1687226 15.999999,8 15.999999,3.5817221 12.418277,0 8,0 Z" opacity=".13"/></svg>