<svg xmlns="http://www.w3.org/2000/svg" xmlns:svg="http://www.w3.org/2000/svg" xmlns:xlink="http://www.w3.org/1999/xlink" id="svg2" width="16" height="16" version="1.1" viewBox="0 0 16 16"><metadata id="metadata20"/><defs id="defs4"><linearGradient id="linearGradient3799" x1="1" x2="15" gradientTransform="matrix(0 1 -1 0 16 0)" gradientUnits="userSpaceOnUse" xlink:href="#linearGradient3793"/><linearGradient id="linearGradient3793"><stop id="stop8" offset="0" stop-color="#e5e5e5"/><stop id="stop10" offset="1" stop-color="#f9f9f9"/></linearGradient></defs><path id="path12" fill="#fff" d="M 8,15 C 4.134007,15 1,11.865993 1,8 1,4.1340068 4.134007,1 8,1 c 3.865993,0 7,3.1340068 7,7 0,3.865993 -3.134007,7 -7,7 z"/><path id="path4150" fill="#3b99fc" fill-opacity="1" d="M 8,0 C 3.5817221,0 1.5e-8,3.5817221 1.5e-8,8 1.5e-8,12.418278 3.5817221,16 8,16 12.418278,16 16,12.418278 16,8 16,3.5817221 12.418278,0 8,0 Z"/><path id="path14" fill="#000" fill-opacity=".992" d="M 8,0 C 3.581722,0 0,3.581722 0,8 c 0,4.418278 3.581722,8 8,8 4.418278,0 8,-3.581722 8,-8 C 16,3.581722 12.418278,0 8,0 z m 0,1 c 3.865993,0 7,3.1340068 7,7 0,3.865993 -3.134007,7 -7,7 C 4.1340068,15 1,11.865993 1,8 1,4.1340068 4.1340068,1 8,1 z" opacity=".05"/><path id="path4155" fill="#000" fill-opacity="1" d="M 8 0 C 3.5817221 0 5.9211895e-16 3.5817221 0 8 C 0 8.1687226 0.015097196 8.3338701 0.025390625 8.5 C 0.28464744 4.315747 3.7504447 1 8 1 C 12.249555 1 15.715353 4.315747 15.974609 8.5 C 15.984903 8.3338701 16 8.1687226 16 8 C 16 3.5817221 12.418278 0 8 0 z" opacity=".1"/><rect id="rect4157" width="10" height="2.1" x="3" y="7.7" fill="#000" fill-opacity="1" stroke="none" opacity=".1" rx="1.211" ry="1.05"/><rect id="rect4153" width="10" height="2.1" x="3" y="6.95" fill="#fff" fill-opacity="1" stroke="none" opacity="1" rx="1.211" ry="1.05"/></svg>