<svg xmlns="http://www.w3.org/2000/svg" xmlns:svg="http://www.w3.org/2000/svg" xmlns:xlink="http://www.w3.org/1999/xlink" id="svg2" width="16" height="16" version="1.1" viewBox="0 0 16 16"><metadata id="metadata20"/><defs id="defs4"><linearGradient id="linearGradient905"><stop id="stop901" offset="0" stop-color="#14367a" stop-opacity="1"/><stop id="stop903" offset="1" stop-color="#15367f" stop-opacity="1"/></linearGradient><linearGradient id="linearGradient3809"><stop id="stop7" offset="0" stop-color="#e5e5e5"/><stop id="stop9" offset="1" stop-color="#f9f9f9"/></linearGradient><linearGradient id="linearGradient3832" x1="1" x2="15" gradientTransform="translate(0 -16)" gradientUnits="userSpaceOnUse" xlink:href="#linearGradient3809"/><linearGradient id="linearGradient3853" x1="402.25" x2="396.617" y1="507.862" y2="502.854" gradientTransform="matrix(1.0666667,0,0,1.0666667,-418.66669,-532.65303)" gradientUnits="userSpaceOnUse" xlink:href="#linearGradient905"/><linearGradient id="linearGradient3856" x1="404" x2="398.375" y1="514.237" y2="503.703" gradientTransform="matrix(1.0666667,0,0,1.0666667,-418.66669,-532.65303)" gradientUnits="userSpaceOnUse" xlink:href="#linearGradient905"/></defs><rect id="rect3024" width="16" height="16" x="0" y="0" fill="url(#linearGradient3856)" fill-opacity="1" stroke="none" rx="3.267" ry="3.267"/><rect id="rect3026" width="13.867" height="13.867" x="1.067" y="1.067" fill="url(#linearGradient3853)" fill-opacity="1" stroke="none" rx="2.831" ry="2.831"/><path id="rect3932-3" fill="#000" fill-opacity=".323" stroke="none" stroke-width="1.15" d="m 12.722072,16 c 1.808497,0 3.266998,-1.450656 3.266998,-3.249427 V 11.52726 c 0,1.79877 -1.458501,3.249426 -3.266998,3.249426 H 3.2669986 C 1.4585026,14.776686 -4e-7,13.32603 -4e-7,11.52726 v 1.223313 C -4e-7,14.549344 1.4585026,16 3.2669986,16 Z" opacity=".2"/><path id="rect3932-3-3" fill="#fff" fill-opacity="1" stroke="none" stroke-width="1.15" d="m 3.2727687,-0.00107827 c -1.8084971,0 -3.2669982,1.45065597 -3.2669982,3.24942627 v 1.2233134 c 0,-1.7987702 1.4585011,-3.2494261 3.2669982,-3.2494261 h 9.4550723 c 1.808496,0 3.266999,1.4506559 3.266999,3.2494261 V 3.248348 c 0,-1.7987703 -1.458503,-3.24942627 -3.266999,-3.24942627 z" opacity=".2"/><rect id="rect4157" width="10" height="2.1" x="3" y="7.7" fill="#000" fill-opacity="1" stroke="none" opacity=".1" rx="1.211" ry="1.05"/><rect id="rect4153" width="10" height="2.1" x="3" y="6.95" fill="#fff" fill-opacity=".737" stroke="none" opacity="1" rx="1.211" ry="1.05"/></svg>