<svg xmlns="http://www.w3.org/2000/svg" xmlns:svg="http://www.w3.org/2000/svg" xmlns:xlink="http://www.w3.org/1999/xlink" id="svg2" width="16" height="16" version="1.1" viewBox="0 0 16 16"><metadata id="metadata18"/><defs id="defs4"><linearGradient id="grad1"><stop id="stop4557" offset="0" stop-color="#4c4e50" stop-opacity="1"/><stop id="stop4559" offset="1" stop-color="#3b3c3d" stop-opacity="1"/></linearGradient><linearGradient id="linearGradient3809"><stop id="stop7" offset="0" stop-color="#e5e5e5"/><stop id="stop9" offset="1" stop-color="#f9f9f9"/></linearGradient><linearGradient id="linearGradient3815" x1="1" x2="15" gradientTransform="translate(0 -16)" gradientUnits="userSpaceOnUse" xlink:href="#linearGradient3809"/><linearGradient id="linearGradient3044"><stop id="stop3046" offset="0" stop-color="#1f2a2c" stop-opacity="1"/><stop id="stop3048" offset="1" stop-color="#253235" stop-opacity="1"/></linearGradient><linearGradient id="linearGradient3036"><stop id="stop3038" offset="0" stop-color="#293739" stop-opacity="1"/><stop id="stop3040" offset="1" stop-color="#314245" stop-opacity="1"/></linearGradient><linearGradient id="linearGradient15404"><stop id="stop15406" offset="0" stop-color="#515151" stop-opacity="1"/><stop id="stop15408" offset="1" stop-color="#292929" stop-opacity="1"/></linearGradient><linearGradient id="linearGradient5891-0-4" x1="205.841" x2="206.748" y1="246.709" y2="231.241" gradientUnits="userSpaceOnUse" xlink:href="#linearGradient5872-5-1"/><linearGradient id="linearGradient5872-5-1"><stop id="stop5874-4-4" offset="0" stop-color="#17520b" stop-opacity="1"/><stop id="stop5876-0-5" offset="1" stop-color="#31af18" stop-opacity="1"/></linearGradient><linearGradient id="linearGradient14219" x1="-93.031" x2="-93.031" y1="-396.347" y2="-388.73" gradientTransform="matrix(1.5918367,0,0,0.85714285,-256.56122,59.685418)" gradientUnits="userSpaceOnUse" xlink:href="#linearGradient15404"/><linearGradient id="linearGradient10013-4-63-6"><stop id="stop10015-2-76-1" offset="0" stop-color="#333" stop-opacity="1"/><stop id="stop10017-46-15-8" offset="1" stop-color="#292929" stop-opacity="1"/></linearGradient><linearGradient id="linearGradient10597-5"><stop id="stop10599-2" offset="0" stop-color="#16191a" stop-opacity="1"/><stop id="stop10601-5" offset="1" stop-color="#2b3133" stop-opacity="1"/></linearGradient><linearGradient id="linearGradient15374" x1="921.328" x2="921.225" y1="-330.051" y2="-322.164" gradientTransform="matrix(1.5918367,0,0,0.85714285,-1456.5464,275.45191)" gradientUnits="userSpaceOnUse" xlink:href="#linearGradient10013-4-63-6"/><linearGradient id="linearGradient15376" x1="1203.918" x2="1203.918" y1="-217.567" y2="-227.08" gradientTransform="translate(-1199.9852,216.38048)" gradientUnits="userSpaceOnUse" xlink:href="#linearGradient10597-5"/><linearGradient id="linearGradient3024" x1="205.841" x2="206.748" y1="246.709" y2="231.241" gradientTransform="matrix(0.84337,0,0,0.84337,179.95295,329.68771)" gradientUnits="userSpaceOnUse" xlink:href="#linearGradient5872-5-1"/><linearGradient id="linearGradient3042" x1="404" x2="398.375" y1="514.237" y2="503.703" gradientTransform="translate(-49.497475,26.162951)" gradientUnits="userSpaceOnUse" xlink:href="#linearGradient3036"/><linearGradient id="linearGradient3050" x1="402.25" x2="396.617" y1="507.862" y2="502.854" gradientTransform="translate(-49.497475,26.162951)" gradientUnits="userSpaceOnUse" xlink:href="#linearGradient3044"/><linearGradient id="linearGradient3856" x1="398.375" x2="398.375" y1="513.912" y2="503.703" gradientTransform="matrix(1.0666667,0,0,1.0666667,-418.66668,-532.65301)" gradientUnits="userSpaceOnUse" xlink:href="#grad1"/><linearGradient id="linearGradient4563" x1="1.067" x2="14.933" y1="8" y2="8" gradientTransform="translate(-16.000001)" gradientUnits="userSpaceOnUse" xlink:href="#grad1"/></defs><rect id="rect12" width="14" height="14" x="1" y="-15" fill="#fff" rx="1" transform="rotate(90)"/><rect id="rect3024" width="16" height="16" x="0" y="0" fill="url(#linearGradient3856)" fill-opacity="1" stroke="none" rx="3.267" ry="3.267"/><rect id="rect3026" width="13.867" height="13.867" x="-14.933" y="1.067" fill="url(#linearGradient4563)" fill-opacity="1" stroke="none" rx="2.831" ry="2.831" transform="rotate(-90)"/><path id="rect3932-3-3" fill="#fff" fill-opacity="1" stroke="none" stroke-width="1.15" d="M 3.2729982,-7.397e-4 C 1.4645011,-7.397e-4 0.006,1.4499163 0.006,3.2486866 V 4.472 c 0,-1.7987702 1.4585011,-3.2494261 3.2669982,-3.2494261 h 9.4550728 c 1.808495,0 3.266998,1.4506559 3.266998,3.2494261 V 3.2486866 c 0,-1.7987703 -1.458503,-3.2494263 -3.266998,-3.2494263 z" opacity=".2"/><path id="rect3067" fill="#000" fill-opacity="1" stroke="none" d="m 11.594886,4.3377405 c -0.267296,0.050027 -0.533483,0.2235521 -0.7,0.4666667 L 6.594885,11.104407 4.961552,9.471074 c -0.416736,-0.416736 -1.083264,-0.416736 -1.5,0 -0.416736,0.4167365 -0.416736,1.083264 0,1.499999 l 2.366667,2.366667 0.166666,0.166667 c 0.04491,0.04437 0.07925,0.09632 0.133334,0.133333 0.04171,0.02859 0.08939,0.0448 0.133333,0.06667 0.05451,0.02688 0.109291,0.04971 0.166667,0.06667 0.03243,0.0096 0.0672,0.02667 0.09995,0.03328 0.02101,0.0043 0.04544,-0.0032 0.06667,0 0.09003,0.01152 0.176608,0.01152 0.266666,0 0.09003,-0.01163 0.181323,-0.03189 0.266667,-0.06667 0.133963,-0.05301 0.261259,-0.126603 0.366667,-0.233334 0.04437,-0.04491 0.09632,-0.07936 0.133333,-0.133333 l 5.033333,-7.3666691 c 0.333035,-0.4862293 0.219563,-1.1669547 -0.266667,-1.5 -0.243114,-0.1665174 -0.532704,-0.2166507 -0.8,-0.1666667 z" opacity=".1"/><path id="rect3828" fill="#fff" fill-opacity=".737" stroke="none" d="m 11.594886,3.2712552 c -0.267296,0.050027 -0.533483,0.223552 -0.7,0.4666667 L 6.594885,10.037922 4.961552,8.4045887 c -0.416736,-0.416736 -1.083264,-0.416736 -1.5,0 -0.416736,0.416736 -0.416736,1.083264 0,1.5000004 l 2.366667,2.3666659 0.166666,0.166666 c 0.04491,0.04437 0.07925,0.09632 0.133334,0.133334 0.04171,0.02859 0.08939,0.0448 0.133333,0.06667 0.05451,0.02688 0.109291,0.04971 0.166667,0.06667 0.03243,0.0096 0.0672,0.02667 0.09995,0.03328 0.02101,0.0043 0.04544,-0.0032 0.06667,0 0.09003,0.01163 0.176608,0.01163 0.266666,0 0.09003,-0.01163 0.181323,-0.03189 0.266667,-0.06667 0.133963,-0.05301 0.261259,-0.126613 0.366667,-0.233333 0.04437,-0.04491 0.09632,-0.07925 0.133333,-0.133333 l 5.033333,-7.3666704 c 0.333035,-0.4862294 0.219563,-1.1669547 -0.266667,-1.5000001 -0.243114,-0.1665173 -0.532704,-0.2166507 -0.8,-0.1666667 z"/></svg>