<svg xmlns="http://www.w3.org/2000/svg" xmlns:svg="http://www.w3.org/2000/svg" xmlns:xlink="http://www.w3.org/1999/xlink" id="svg2" width="16" height="16" version="1.1" viewBox="0 0 16 16"><metadata id="metadata20"/><defs id="defs4"><linearGradient id="linearGradient905"><stop id="stop901" offset="0" stop-color="#14367a" stop-opacity="1"/><stop id="stop903" offset="1" stop-color="#15367f" stop-opacity="1"/></linearGradient><linearGradient id="linearGradient3809"><stop id="stop7" offset="0" stop-color="#e5e5e5"/><stop id="stop9" offset="1" stop-color="#f9f9f9"/></linearGradient><linearGradient id="linearGradient3832" x1="1" x2="15" gradientTransform="translate(0 -16)" gradientUnits="userSpaceOnUse" xlink:href="#linearGradient3809"/><linearGradient id="linearGradient3853" x1="402.25" x2="396.617" y1="507.862" y2="502.854" gradientTransform="matrix(1.0666667,0,0,1.0666667,-418.66669,-532.65303)" gradientUnits="userSpaceOnUse" xlink:href="#linearGradient905"/><linearGradient id="linearGradient3856" x1="404" x2="398.375" y1="514.237" y2="503.703" gradientTransform="matrix(1.0666667,0,0,1.0666667,-418.66669,-532.65303)" gradientUnits="userSpaceOnUse" xlink:href="#linearGradient905"/></defs><rect id="rect3024" width="16" height="16" x="0" y="0" fill="url(#linearGradient3856)" fill-opacity="1" stroke="none" rx="8" ry="8"/><rect id="rect3026" width="13.867" height="13.867" x="1.067" y="1.067" fill="url(#linearGradient3853)" fill-opacity="1" stroke="none" rx="6.933" ry="6.933"/><path id="path4153" fill="#000" stroke="none" d="M 11,9 C 11,10.656855 9.656855,12 8,12 6.343146,12 5,10.656855 5,9 5,7.3431458 6.343146,6 8,6 c 1.656855,0 3,1.3431458 3,3 z" opacity=".1"/><path id="path16" fill="#fff" fill-opacity=".737" stroke="none" d="M 11,8 C 11,9.656855 9.656855,11 8,11 6.343146,11 5,9.656855 5,8 5,6.3431458 6.343146,5 8,5 c 1.656855,0 3,1.3431458 3,3 z"/><path id="path4155" fill="#fff" fill-opacity="1" d="M 7.9999995,4e-7 C 3.5817221,4e-7 0,3.5817224 0,8 0,8.168723 0.015097,8.33387 0.025391,8.5 0.2846478,4.3157474 3.7504451,1.0000004 8.0000005,1.0000004 12.249556,1.0000004 15.715354,4.3157474 15.97461,8.5 15.9849,8.33387 16,8.168723 16,8 16,3.5817224 12.418278,4e-7 7.9999995,4e-7 Z" opacity=".1"/><path id="path4155-3" fill="#000" fill-opacity="1" d="m 7.9999995,16 c 4.4182775,0 7.9999995,-3.581722 7.9999995,-8 0,-0.168723 -0.0151,-0.33387 -0.02539,-0.5 C 15.715351,11.684253 12.249555,15 7.9999995,15 3.750444,15 0.284646,11.684253 0.02539,7.5 0.0151,7.66613 0,7.831277 0,8 c 0,4.418278 3.581722,8 7.9999995,8 z" opacity=".1"/></svg>