<svg xmlns="http://www.w3.org/2000/svg" xmlns:svg="http://www.w3.org/2000/svg" xmlns:xlink="http://www.w3.org/1999/xlink" id="svg2" width="16" height="16" version="1.1" viewBox="0 0 16 16"><metadata id="metadata20"/><defs id="defs4"><linearGradient id="linearGradient3809"><stop id="stop7" offset="0" stop-color="#e5e5e5"/><stop id="stop9" offset="1" stop-color="#f9f9f9"/></linearGradient><linearGradient id="linearGradient3832" x1="1" x2="15" gradientTransform="translate(0 -16)" gradientUnits="userSpaceOnUse" xlink:href="#linearGradient3809"/><linearGradient id="linearGradient3853" x1="402.25" x2="396.617" y1="507.862" y2="502.854" gradientTransform="matrix(1.0666667,0,0,1.0666667,-418.66669,-532.65303)" gradientUnits="userSpaceOnUse" xlink:href="#linearGradient3053"/><linearGradient id="linearGradient3053"><stop id="stop3055" offset="0" stop-color="#2155c8" stop-opacity="1"/><stop id="stop3057" offset="1" stop-color="#235bd0" stop-opacity="1"/></linearGradient><linearGradient id="linearGradient3856" x1="404" x2="398.375" y1="514.237" y2="503.703" gradientTransform="matrix(1.0666667,0,0,1.0666667,-418.66669,-532.65303)" gradientUnits="userSpaceOnUse" xlink:href="#linearGradient3053"/></defs><rect id="rect3024" width="16" height="16" x="0" y="0" fill="url(#linearGradient3856)" fill-opacity="1" stroke="none" rx="8" ry="8"/><rect id="rect3026" width="13.867" height="13.867" x="1.067" y="1.067" fill="url(#linearGradient3853)" fill-opacity="1" stroke="none" rx="6.933" ry="6.933"/><path id="path4153" fill="#000" stroke="none" d="m 11.00076,8.9814094 c 0,1.6568556 -1.3431449,3.0000006 -2.9999999,3.0000006 -1.656854,0 -3,-1.343145 -3,-3.0000006 0,-1.6568542 1.343146,-3 3,-3 1.656855,0 2.9999999,1.3431458 2.9999999,3 z" opacity=".1"/><path id="path16" fill="#fff" fill-opacity="1" stroke="none" d="m 11.00076,7.9814094 c 0,1.656855 -1.3431449,3.0000006 -2.9999999,3.0000006 -1.656854,0 -3,-1.3431456 -3,-3.0000006 0,-1.6568542 1.343146,-3 3,-3 1.656855,0 2.9999999,1.3431458 2.9999999,3 z"/><path id="path4155" fill="#fff" fill-opacity="1" d="M 8,0 C 3.5817221,0 0,3.581722 0,8 0,8.168723 0.015097,8.33387 0.025391,8.5 0.2846478,4.315747 3.7504451,1 8.0000004,1 12.249556,1 15.715354,4.315747 15.97461,8.5 15.9849,8.33387 16,8.168723 16,8 16,3.581722 12.418278,0 8,0 Z" opacity=".1"/><path id="path4155-3" fill="#000" fill-opacity="1" d="m 7.9999992,16 c 4.4182778,0 7.9999998,-3.581722 7.9999998,-8.0000004 0,-0.168723 -0.0151,-0.33387 -0.02539,-0.5 C 15.715352,11.684253 12.249555,15 7.9999998,15 3.750444,15 0.284646,11.684253 0.02539,7.4999996 0.0151,7.6661296 0,7.8312766 0,7.9999996 0,12.418278 3.581722,16 7.9999992,16 Z" opacity=".1"/></svg>