<svg xmlns="http://www.w3.org/2000/svg" xmlns:svg="http://www.w3.org/2000/svg" id="svg1370" width="11" height="19" version="1.1" viewBox="0 0 14.667 25.344"><metadata id="metadata1376"/><g id="g5626"><path id="path5630" fill="#4391d0" fill-opacity="1" stroke-width="1.333" d="M 3.5880145,21.599162 C 0.4230595,18.29566 0,16.801503 0,8.927041 V 0 h 7.3333335 7.3333335 v 9.0838779 c 0,8.2154321 -0.358064,9.4269251 -3.745319,12.6721211 l -3.7453189,3.588242 z"/><path id="path5628" fill="#316b99" fill-opacity="1" stroke-width="1.333" d="M 1.2788931e-8,18.677965 0,0 h 7.3333335 7.3333335 c -0.01687,7.6674039 0,11.182359 0,18.677965 L 7.1760291,25.344241 Z M 13.333334,1.333333 l -6.0000005,3e-7 H 1.3333334 l -4e-7,17.3446317 5.8122165,5.336984 c 3.9508605,-3.46418 6.1869785,-5.336308 6.1869785,-5.336308 8.06e-4,-5.378931 8.06e-4,-12.5650887 8.06e-4,-17.345308 z"/></g></svg>